<svg xmlns="http://www.w3.org/2000/svg" xmlns:xlink="http://www.w3.org/1999/xlink" width="188" zoomAndPan="magnify" viewBox="0 0 141 141.000003" height="188" preserveAspectRatio="xMidYMid meet" version="1.0"><defs><g/><clipPath id="e15c8e73e6"><path d="M 2 1 L 139 1 L 139 139 L 2 139 Z M 2 1 " clip-rule="nonzero"/></clipPath><clipPath id="6c3ff6c91c"><path d="M 73.894531 2.941406 C 75.941406 4.675781 78.839844 4.980469 81.203125 3.710938 L 81.214844 3.703125 C 83.472656 2.488281 86.277344 3.085938 87.847656 5.109375 C 89.488281 7.226562 92.257812 8.125 94.828125 7.375 L 94.859375 7.367188 C 97.316406 6.648438 99.929688 7.8125 101.042969 10.117188 C 102.203125 12.527344 104.722656 13.976562 107.390625 13.773438 L 107.433594 13.769531 C 109.980469 13.578125 112.296875 15.257812 112.902344 17.742188 C 113.535156 20.335938 115.695312 22.277344 118.34375 22.632812 L 118.390625 22.636719 C 120.921875 22.972656 122.835938 25.097656 122.910156 27.652344 C 122.984375 30.320312 124.695312 32.667969 127.210938 33.5625 L 127.25 33.574219 C 129.65625 34.429688 131.085938 36.902344 130.625 39.414062 C 130.140625 42.039062 131.324219 44.691406 133.601562 46.085938 L 133.628906 46.101562 C 135.804688 47.4375 136.691406 50.15625 135.714844 52.515625 C 134.691406 54.984375 135.296875 57.824219 137.234375 59.664062 L 137.246094 59.671875 C 139.101562 61.429688 139.398438 64.277344 137.953125 66.382812 C 136.4375 68.585938 136.4375 71.492188 137.953125 73.695312 C 139.398438 75.800781 139.101562 78.648438 137.246094 80.40625 L 137.234375 80.417969 C 135.296875 82.253906 134.691406 85.097656 135.714844 87.5625 C 136.691406 89.921875 135.804688 92.640625 133.628906 93.976562 L 133.601562 93.992188 C 131.324219 95.386719 130.140625 98.039062 130.625 100.664062 C 131.085938 103.175781 129.65625 105.652344 127.25 106.503906 L 127.210938 106.519531 C 124.695312 107.410156 122.984375 109.757812 122.910156 112.429688 C 122.835938 114.980469 120.921875 117.105469 118.390625 117.441406 L 118.34375 117.449219 C 115.695312 117.800781 113.535156 119.742188 112.902344 122.339844 C 112.296875 124.820312 109.980469 126.5 107.433594 126.308594 L 107.390625 126.304688 C 104.722656 126.101562 102.203125 127.554688 101.042969 129.960938 C 99.929688 132.269531 97.3125 133.433594 94.859375 132.714844 L 94.828125 132.703125 C 92.257812 131.953125 89.488281 132.851562 87.847656 134.96875 C 86.277344 136.996094 83.472656 137.589844 81.214844 136.375 L 81.203125 136.371094 C 78.839844 135.101562 75.941406 135.402344 73.894531 137.136719 C 71.933594 138.792969 69.066406 138.792969 67.105469 137.136719 C 65.058594 135.402344 62.160156 135.101562 59.796875 136.371094 L 59.785156 136.375 C 57.527344 137.589844 54.722656 136.996094 53.152344 134.96875 C 51.511719 132.851562 48.742188 131.953125 46.171875 132.703125 L 46.140625 132.714844 C 43.6875 133.433594 41.070312 132.269531 39.957031 129.960938 C 38.796875 127.554688 36.277344 126.101562 33.609375 126.304688 L 33.566406 126.308594 C 31.019531 126.5 28.703125 124.820312 28.097656 122.339844 C 27.464844 119.742188 25.304688 117.800781 22.65625 117.449219 L 22.609375 117.441406 C 20.078125 117.105469 18.164062 114.980469 18.089844 112.429688 C 18.015625 109.757812 16.304688 107.410156 13.789062 106.519531 L 13.75 106.503906 C 11.34375 105.652344 9.914062 103.175781 10.375 100.664062 C 10.859375 98.039062 9.675781 95.386719 7.398438 93.992188 L 7.371094 93.976562 C 5.195312 92.640625 4.308594 89.921875 5.285156 87.5625 C 6.308594 85.097656 5.703125 82.253906 3.765625 80.417969 L 3.753906 80.40625 C 1.898438 78.648438 1.601562 75.800781 3.046875 73.695312 C 4.5625 71.492188 4.5625 68.585938 3.046875 66.382812 C 1.601562 64.277344 1.898438 61.429688 3.753906 59.671875 L 3.765625 59.664062 C 5.703125 57.824219 6.308594 54.984375 5.285156 52.515625 C 4.308594 50.15625 5.195312 47.4375 7.371094 46.101562 L 7.398438 46.085938 C 9.675781 44.691406 10.859375 42.039062 10.375 39.414062 C 9.914062 36.902344 11.34375 34.429688 13.75 33.574219 L 13.789062 33.5625 C 16.304688 32.667969 18.015625 30.320312 18.089844 27.652344 C 18.164062 25.097656 20.078125 22.972656 22.609375 22.636719 L 22.65625 22.632812 C 25.304688 22.277344 27.464844 20.335938 28.097656 17.742188 C 28.703125 15.257812 31.019531 13.578125 33.566406 13.769531 L 33.609375 13.773438 C 36.277344 13.976562 38.796875 12.527344 39.957031 10.117188 C 41.070312 7.8125 43.683594 6.648438 46.140625 7.367188 L 46.171875 7.375 C 48.742188 8.125 51.511719 7.226562 53.152344 5.109375 C 54.722656 3.085938 57.527344 2.488281 59.785156 3.703125 L 59.796875 3.710938 C 62.160156 4.980469 65.058594 4.675781 67.105469 2.941406 C 69.066406 1.285156 71.933594 1.285156 73.894531 2.941406 " clip-rule="nonzero"/></clipPath><clipPath id="664e8dd3dd"><path d="M 2 1 L 140 1 L 140 139 L 2 139 Z M 2 1 " clip-rule="nonzero"/></clipPath><clipPath id="880d976c57"><path d="M 73.976562 2.945312 C 76.027344 4.679688 78.929688 4.984375 81.292969 3.714844 L 81.304688 3.707031 C 83.566406 2.492188 86.371094 3.089844 87.945312 5.117188 C 89.585938 7.234375 92.359375 8.136719 94.933594 7.382812 L 94.964844 7.375 C 97.421875 6.65625 100.039062 7.820312 101.152344 10.128906 C 102.316406 12.539062 104.839844 13.992188 107.507812 13.789062 L 107.550781 13.785156 C 110.105469 13.59375 112.421875 15.273438 113.027344 17.761719 C 113.660156 20.359375 115.824219 22.304688 118.476562 22.65625 L 118.523438 22.664062 C 121.054688 23 122.972656 25.125 123.042969 27.683594 C 123.121094 30.355469 124.832031 32.703125 127.351562 33.597656 L 127.390625 33.613281 C 129.800781 34.464844 131.234375 36.945312 130.769531 39.457031 C 130.285156 42.085938 131.46875 44.742188 133.75 46.136719 L 133.777344 46.152344 C 135.957031 47.488281 136.84375 50.210938 135.863281 52.574219 C 134.839844 55.042969 135.445312 57.890625 137.386719 59.730469 L 137.398438 59.738281 C 139.253906 61.5 139.554688 64.347656 138.105469 66.457031 C 136.589844 68.660156 136.589844 71.574219 138.105469 73.777344 C 139.554688 75.886719 139.253906 78.734375 137.398438 80.496094 L 137.386719 80.503906 C 135.445312 82.34375 134.839844 85.191406 135.863281 87.660156 C 136.84375 90.023438 135.957031 92.746094 133.777344 94.082031 L 133.75 94.097656 C 131.46875 95.492188 130.285156 98.148438 130.769531 100.777344 C 131.234375 103.289062 129.800781 105.769531 127.390625 106.621094 L 127.351562 106.636719 C 124.832031 107.53125 123.121094 109.878906 123.042969 112.554688 C 122.972656 115.109375 121.054688 117.234375 118.523438 117.570312 L 118.476562 117.578125 C 115.824219 117.929688 113.660156 119.875 113.027344 122.472656 C 112.421875 124.960938 110.105469 126.644531 107.550781 126.449219 L 107.507812 126.445312 C 104.839844 126.242188 102.316406 127.695312 101.152344 130.109375 C 100.039062 132.414062 97.421875 133.582031 94.964844 132.863281 L 94.933594 132.851562 C 92.359375 132.101562 89.585938 133 87.945312 135.117188 C 86.371094 137.148438 83.566406 137.742188 81.304688 136.527344 L 81.292969 136.523438 C 78.929688 135.25 76.027344 135.554688 73.976562 137.289062 C 72.015625 138.949219 69.140625 138.949219 67.179688 137.289062 C 65.128906 135.554688 62.226562 135.25 59.863281 136.523438 L 59.851562 136.527344 C 57.589844 137.742188 54.785156 137.148438 53.210938 135.117188 C 51.570312 133 48.796875 132.101562 46.222656 132.851562 L 46.191406 132.863281 C 43.734375 133.582031 41.113281 132.414062 40.003906 130.109375 C 38.839844 127.695312 36.316406 126.242188 33.644531 126.445312 L 33.605469 126.449219 C 31.050781 126.644531 28.734375 124.960938 28.128906 122.472656 C 27.496094 119.875 25.332031 117.929688 22.679688 117.578125 L 22.632812 117.570312 C 20.101562 117.234375 18.183594 115.109375 18.109375 112.554688 C 18.035156 109.878906 16.324219 107.53125 13.804688 106.636719 L 13.765625 106.621094 C 11.355469 105.769531 9.921875 103.289062 10.386719 100.777344 C 10.871094 98.148438 9.6875 95.492188 7.40625 94.097656 L 7.378906 94.082031 C 5.199219 92.746094 4.3125 90.023438 5.292969 87.660156 C 6.316406 85.191406 5.710938 82.34375 3.769531 80.503906 L 3.757812 80.496094 C 1.902344 78.734375 1.601562 75.886719 3.050781 73.777344 C 4.566406 71.574219 4.566406 68.660156 3.050781 66.457031 C 1.601562 64.347656 1.902344 61.5 3.757812 59.738281 L 3.769531 59.730469 C 5.710938 57.890625 6.316406 55.042969 5.292969 52.574219 C 4.3125 50.210938 5.199219 47.488281 7.378906 46.152344 L 7.40625 46.136719 C 9.6875 44.742188 10.871094 42.085938 10.386719 39.457031 C 9.921875 36.945312 11.355469 34.464844 13.765625 33.613281 L 13.804688 33.597656 C 16.324219 32.703125 18.035156 30.355469 18.109375 27.683594 C 18.183594 25.125 20.101562 23 22.632812 22.664062 L 22.679688 22.65625 C 25.332031 22.304688 27.496094 20.359375 28.128906 17.761719 C 28.734375 15.273438 31.050781 13.59375 33.605469 13.785156 L 33.648438 13.789062 C 36.316406 13.992188 38.839844 12.539062 40.003906 10.128906 C 41.113281 7.820312 43.734375 6.65625 46.191406 7.375 L 46.222656 7.382812 C 48.796875 8.136719 51.570312 7.234375 53.210938 5.117188 C 54.785156 3.089844 57.589844 2.492188 59.851562 3.707031 L 59.863281 3.714844 C 62.226562 4.984375 65.128906 4.679688 67.179688 2.945312 C 69.140625 1.285156 72.015625 1.285156 73.976562 2.945312 " clip-rule="nonzero"/></clipPath><clipPath id="9a0cf6ee0a"><path d="M 7 7 L 134 7 L 134 133 L 7 133 Z M 7 7 " clip-rule="nonzero"/></clipPath><clipPath id="c4c55e437a"><path d="M 81.476562 10.308594 C 88.746094 14.769531 96.679688 18.054688 104.976562 20.042969 C 112.660156 21.882812 118.65625 27.878906 120.496094 35.5625 C 122.484375 43.863281 125.769531 51.792969 130.230469 59.0625 C 134.363281 65.796875 134.363281 74.28125 130.230469 81.015625 C 125.769531 88.285156 122.484375 96.21875 120.496094 104.515625 C 118.65625 112.199219 112.660156 118.199219 104.976562 120.035156 C 96.679688 122.023438 88.746094 125.308594 81.476562 129.769531 C 74.742188 133.902344 66.257812 133.902344 59.523438 129.769531 C 52.253906 125.308594 44.320312 122.023438 36.023438 120.035156 C 28.339844 118.199219 22.34375 112.199219 20.503906 104.515625 C 18.515625 96.21875 15.230469 88.285156 10.769531 81.015625 C 6.636719 74.28125 6.636719 65.796875 10.769531 59.0625 C 15.230469 51.792969 18.515625 43.863281 20.503906 35.5625 C 22.34375 27.878906 28.339844 21.882812 36.023438 20.042969 C 44.320312 18.054688 52.253906 14.769531 59.523438 10.308594 C 66.257812 6.175781 74.742188 6.175781 81.476562 10.308594 " clip-rule="nonzero"/></clipPath><clipPath id="059dbe1c79"><path d="M 7 7 L 134 7 L 134 133 L 7 133 Z M 7 7 " clip-rule="nonzero"/></clipPath><clipPath id="3b7df04542"><path d="M 81.476562 10.308594 C 88.746094 14.769531 96.675781 18.054688 104.976562 20.042969 C 112.65625 21.882812 118.65625 27.878906 120.496094 35.5625 C 122.484375 43.859375 125.769531 51.792969 130.230469 59.0625 C 134.363281 65.796875 134.363281 74.28125 130.230469 81.015625 C 125.769531 88.285156 122.484375 96.21875 120.496094 104.515625 C 118.65625 112.199219 112.65625 118.195312 104.976562 120.035156 C 96.675781 122.023438 88.746094 125.308594 81.476562 129.769531 C 74.742188 133.902344 66.257812 133.902344 59.523438 129.769531 C 52.253906 125.308594 44.320312 122.023438 36.023438 120.035156 C 28.339844 118.195312 22.34375 112.199219 20.503906 104.515625 C 18.515625 96.21875 15.230469 88.285156 10.769531 81.015625 C 6.636719 74.28125 6.636719 65.796875 10.769531 59.0625 C 15.230469 51.792969 18.515625 43.859375 20.503906 35.5625 C 22.34375 27.878906 28.339844 21.882812 36.023438 20.042969 C 44.320312 18.054688 52.253906 14.769531 59.523438 10.308594 C 66.257812 6.175781 74.742188 6.175781 81.476562 10.308594 " clip-rule="nonzero"/></clipPath><clipPath id="c87017b2fa"><path d="M 49 113 L 59 113 L 59 115.914062 L 49 115.914062 Z M 49 113 " clip-rule="nonzero"/></clipPath><clipPath id="1447b4365c"><path d="M 110 57 L 114.46875 57 L 114.46875 62 L 110 62 Z M 110 57 " clip-rule="nonzero"/></clipPath><clipPath id="a2b507c550"><path d="M 26.527344 99 L 35 99 L 35 104 L 26.527344 104 Z M 26.527344 99 " clip-rule="nonzero"/></clipPath></defs><g clip-path="url(#e15c8e73e6)"><g clip-path="url(#6c3ff6c91c)"><path fill="#f4d292" d="M 0.53125 0.0703125 L 140.46875 0.0703125 L 140.46875 140.007812 L 0.53125 140.007812 Z M 0.53125 0.0703125 " fill-opacity="1" fill-rule="nonzero"/></g></g><g clip-path="url(#664e8dd3dd)"><g clip-path="url(#880d976c57)"><path stroke-linecap="butt" transform="matrix(1.023732, 0, 0, 1.023732, 0.532401, 0.0718542)" fill="none" stroke-linejoin="miter" d="M 71.741607 2.806847 C 73.744848 4.501016 76.579911 4.798641 78.888407 3.558539 L 78.899854 3.550908 C 81.109143 2.364226 83.848813 2.948028 85.386539 4.928374 C 86.989131 6.996482 89.698276 7.877908 92.21282 7.141478 L 92.243346 7.133847 C 94.643419 6.431759 97.199936 7.568836 98.28741 9.823913 C 99.424487 12.178198 101.889427 13.597637 104.495548 13.399221 L 104.537521 13.395406 C 107.032987 13.208436 109.295695 14.849186 109.887128 17.279785 C 110.505271 19.817223 112.619167 21.71744 115.210025 22.060853 L 115.255813 22.068484 C 117.728385 22.396634 119.601892 24.472373 119.670575 26.971655 C 119.746889 29.581591 121.418164 31.874825 123.879288 32.74862 L 123.917445 32.763883 C 126.27173 33.595704 127.672091 36.018672 127.218023 38.472165 C 126.744876 41.040129 127.901033 43.634803 130.1294 44.997006 L 130.156109 45.012269 C 132.285268 46.317238 133.151431 48.976778 132.193692 51.285275 C 131.193979 53.696795 131.785412 56.478438 133.681813 58.275631 L 133.69326 58.283263 C 135.505716 60.004142 135.799525 62.785785 134.383901 64.846261 C 132.903411 66.998314 132.903411 69.844824 134.383901 71.996877 C 135.799525 74.057353 135.505716 76.838996 133.69326 78.559876 L 133.681813 78.567507 C 131.785412 80.3647 131.193979 83.146343 132.193692 85.557864 C 133.151431 87.86636 132.285268 90.525901 130.156109 91.830869 L 130.1294 91.846132 C 127.901033 93.208336 126.744876 95.803009 127.218023 98.370973 C 127.672091 100.824466 126.27173 103.247434 123.917445 104.079256 L 123.879288 104.094519 C 121.418164 104.968313 119.746889 107.261547 119.670575 109.875299 C 119.601892 112.370765 117.728385 114.446504 115.255813 114.774654 L 115.210025 114.782285 C 112.619167 115.125698 110.505271 117.025915 109.887128 119.563353 C 109.295695 121.993952 107.032987 123.638518 104.537521 123.447733 L 104.495548 123.443917 C 101.889427 123.245501 99.424487 124.66494 98.28741 127.023041 C 97.199936 129.274302 94.643419 130.415195 92.243346 129.713107 L 92.21282 129.70166 C 89.698276 128.969046 86.989131 129.846656 85.386539 131.914764 C 83.848813 133.898926 81.109143 134.478912 78.899854 133.292231 L 78.888407 133.288415 C 76.579911 132.044498 73.744848 132.342122 71.741607 134.036291 C 69.826127 135.657963 67.017774 135.657963 65.102295 134.036291 C 63.099054 132.342122 60.263991 132.044498 57.955494 133.288415 L 57.944047 133.292231 C 55.734759 134.478912 52.995089 133.898926 51.457363 131.914764 C 49.85477 129.846656 47.145625 128.969046 44.631081 129.70166 L 44.600556 129.713107 C 42.200482 130.415195 39.64015 129.274302 38.556492 127.023041 C 37.419414 124.66494 34.954474 123.245501 32.344537 123.443917 L 32.306381 123.447733 C 29.810915 123.638518 27.548207 121.993952 26.956774 119.563353 C 26.338631 117.025915 24.224735 115.125698 21.633877 114.782285 L 21.588088 114.774654 C 19.115517 114.446504 17.24201 112.370765 17.169511 109.875299 C 17.097013 107.261547 15.425738 104.968313 12.964613 104.094519 L 12.926456 104.079256 C 10.572172 103.247434 9.171811 100.824466 9.625879 98.370973 C 10.099025 95.803009 8.942869 93.208336 6.714502 91.846132 L 6.687792 91.830869 C 4.558633 90.525901 3.69247 87.86636 4.65021 85.557864 C 5.649923 83.146343 5.05849 80.3647 3.162088 78.567507 L 3.150641 78.559876 C 1.338185 76.838996 1.044377 74.057353 2.46 71.996877 C 3.94049 69.844824 3.94049 66.998314 2.46 64.846261 C 1.044377 62.785785 1.338185 60.004142 3.150641 58.283263 L 3.162088 58.275631 C 5.05849 56.478438 5.649923 53.696795 4.65021 51.285275 C 3.69247 48.976778 4.558633 46.317238 6.687792 45.012269 L 6.714502 44.997006 C 8.942869 43.634803 10.099025 41.040129 9.625879 38.472165 C 9.171811 36.018672 10.572172 33.595704 12.926456 32.763883 L 12.964613 32.74862 C 15.425738 31.874825 17.097013 29.581591 17.169511 26.971655 C 17.24201 24.472373 19.115517 22.396634 21.588088 22.068484 L 21.633877 22.060853 C 24.224735 21.71744 26.338631 19.817223 26.956774 17.279785 C 27.548207 14.849186 29.810915 13.208436 32.306381 13.395406 L 32.348353 13.399221 C 34.954474 13.597637 37.419414 12.178198 38.556492 9.823913 C 39.64015 7.568836 42.200482 6.431759 44.600556 7.133847 L 44.631081 7.141478 C 47.145625 7.877908 49.85477 6.996482 51.457363 4.928374 C 52.995089 2.948028 55.734759 2.364226 57.944047 3.550908 L 57.955494 3.558539 C 60.263991 4.798641 63.099054 4.501016 65.102295 2.806847 C 67.017774 1.185176 69.826127 1.185176 71.741607 2.806847 " stroke="#000000" stroke-width="1.45657" stroke-opacity="1" stroke-miterlimit="4"/></g></g><g clip-path="url(#9a0cf6ee0a)"><g clip-path="url(#c4c55e437a)"><path fill="#f68ecd" d="M 4.03125 3.574219 L 136.96875 3.574219 L 136.96875 136.507812 L 4.03125 136.507812 Z M 4.03125 3.574219 " fill-opacity="1" fill-rule="nonzero"/></g></g><g clip-path="url(#059dbe1c79)"><g clip-path="url(#3b7df04542)"><path stroke-linecap="butt" transform="matrix(1.022564, 0, 0, 1.022564, 4.033015, 3.572468)" fill="none" stroke-linejoin="miter" d="M 75.734658 6.587484 C 82.843778 10.949986 90.598487 14.162651 98.716101 16.107058 C 106.226327 17.906303 112.093929 23.770086 113.893175 31.284131 C 115.837582 39.397926 119.050247 47.156455 123.412748 54.265575 C 127.454365 60.851347 127.454365 69.148504 123.412748 75.734276 C 119.050247 82.843396 115.837582 90.601925 113.893175 98.715719 C 112.093929 106.229765 106.226327 112.093547 98.716101 113.892793 C 90.598487 115.8372 82.843778 119.049865 75.734658 123.412367 C 69.148886 127.453983 60.851729 127.453983 54.265956 123.412367 C 47.156836 119.049865 39.398307 115.8372 31.284513 113.892793 C 23.770468 112.093547 17.906685 106.229765 16.10744 98.715719 C 14.163033 90.601925 10.950367 82.843396 6.587866 75.734276 C 2.546249 69.148504 2.546249 60.851347 6.587866 54.265575 C 10.950367 47.156455 14.163033 39.397926 16.10744 31.284131 C 17.906685 23.770086 23.770468 17.906303 31.284513 16.107058 C 39.398307 14.162651 47.156836 10.949986 54.265956 6.587484 C 60.851729 2.545867 69.148886 2.545867 75.734658 6.587484 " stroke="#ff66c4" stroke-width="1.45657" stroke-opacity="1" stroke-miterlimit="4"/></g></g><path fill="#e99ec5" d="M 37.625 33.242188 C 35.597656 31.964844 33.464844 30.6875 31.4375 29.410156 C 30.691406 28.984375 30.050781 30.15625 30.796875 30.582031 C 32.824219 31.859375 34.957031 33.136719 36.988281 34.414062 C 37.625 34.839844 38.375 33.773438 37.625 33.242188 Z M 37.625 33.242188 " fill-opacity="1" fill-rule="nonzero"/><path fill="#81d3ee" d="M 53.421875 52.183594 C 51.394531 50.90625 49.257812 49.628906 47.230469 48.351562 C 46.484375 47.925781 45.84375 49.097656 46.589844 49.523438 C 48.621094 50.800781 50.753906 52.078125 52.78125 53.355469 C 53.421875 53.78125 54.0625 52.609375 53.421875 52.183594 Z M 53.421875 52.183594 " fill-opacity="1" fill-rule="nonzero"/><path fill="#81d3ee" d="M 99.738281 55.164062 C 97.285156 55.375 94.9375 55.695312 92.484375 55.90625 C 92.164062 55.90625 91.84375 56.226562 91.84375 56.546875 C 91.84375 56.863281 92.164062 57.289062 92.484375 57.183594 C 94.9375 56.972656 97.285156 56.652344 99.738281 56.441406 C 100.058594 56.441406 100.378906 56.121094 100.378906 55.800781 C 100.378906 55.480469 100.058594 55.164062 99.738281 55.164062 Z M 99.738281 55.164062 " fill-opacity="1" fill-rule="nonzero"/><g clip-path="url(#c87017b2fa)"><path fill="#81d3ee" d="M 57.585938 113.582031 C 55.128906 113.792969 52.78125 114.113281 50.328125 114.328125 C 50.007812 114.328125 49.6875 114.644531 49.6875 114.964844 C 49.6875 115.285156 50.007812 115.710938 50.328125 115.601562 C 52.78125 115.390625 55.128906 115.070312 57.585938 114.859375 C 57.902344 114.859375 58.222656 114.539062 58.222656 114.21875 C 58.332031 114.007812 58.011719 113.582031 57.585938 113.582031 Z M 57.585938 113.582031 " fill-opacity="1" fill-rule="nonzero"/></g><path fill="#81d3ee" d="M 50.328125 77.296875 C 48.300781 76.019531 46.164062 74.742188 44.136719 73.464844 C 43.390625 72.933594 42.75 74.105469 43.390625 74.636719 C 45.417969 75.914062 47.550781 77.191406 49.578125 78.464844 C 50.328125 78.890625 50.96875 77.722656 50.328125 77.296875 Z M 50.328125 77.296875 " fill-opacity="1" fill-rule="nonzero"/><path fill="#b6d995" d="M 63.667969 47.394531 C 64.199219 45.054688 64.628906 42.605469 65.160156 40.265625 C 65.375 39.414062 64.09375 39.09375 63.878906 39.945312 C 63.347656 42.285156 62.921875 44.734375 62.386719 47.074219 C 62.28125 47.925781 63.5625 48.246094 63.667969 47.394531 Z M 63.667969 47.394531 " fill-opacity="1" fill-rule="nonzero"/><path fill="#e99ec5" d="M 87.253906 37.390625 C 88.535156 39.414062 89.816406 41.542969 91.09375 43.5625 C 91.523438 44.308594 92.695312 43.671875 92.269531 42.925781 C 90.988281 40.902344 89.707031 38.777344 88.425781 36.753906 C 87.894531 36.007812 86.828125 36.648438 87.253906 37.390625 Z M 87.253906 37.390625 " fill-opacity="1" fill-rule="nonzero"/><path fill="#b6d995" d="M 104.648438 43.882812 C 105.183594 41.542969 105.609375 39.09375 106.144531 36.753906 C 106.355469 35.902344 105.078125 35.582031 104.863281 36.433594 C 104.328125 38.777344 103.902344 41.222656 103.367188 43.5625 C 103.261719 44.308594 104.542969 44.734375 104.648438 43.882812 Z M 104.648438 43.882812 " fill-opacity="1" fill-rule="nonzero"/><path fill="#f29b91" d="M 58.222656 32.921875 C 60.464844 32.070312 62.8125 31.21875 65.054688 30.476562 C 65.375 30.371094 65.589844 30.050781 65.480469 29.625 C 65.375 29.304688 65.054688 29.09375 64.734375 29.199219 C 62.492188 30.050781 60.144531 30.902344 57.902344 31.644531 C 57.585938 31.753906 57.371094 32.070312 57.476562 32.496094 C 57.476562 32.816406 57.796875 33.03125 58.222656 32.921875 Z M 58.222656 32.921875 " fill-opacity="1" fill-rule="nonzero"/><path fill="#81d3ee" d="M 47.550781 34.304688 L 47.871094 34.945312 C 47.980469 35.15625 48.191406 35.265625 48.40625 35.371094 L 49.046875 35.476562 C 49.6875 35.582031 49.898438 36.328125 49.472656 36.753906 L 48.9375 37.285156 C 48.726562 37.285156 48.726562 37.5 48.726562 37.710938 L 48.832031 38.351562 C 48.9375 38.988281 48.300781 39.414062 47.765625 39.09375 L 47.230469 38.882812 C 47.019531 38.777344 46.804688 38.777344 46.589844 38.882812 L 45.949219 39.199219 C 45.417969 39.519531 44.777344 38.988281 44.882812 38.457031 L 44.992188 37.816406 C 44.992188 37.605469 44.992188 37.390625 44.777344 37.179688 L 44.242188 36.648438 C 43.816406 36.222656 44.03125 35.476562 44.671875 35.371094 L 45.3125 35.265625 C 45.523438 35.265625 45.738281 35.050781 45.84375 34.839844 L 46.164062 34.199219 C 46.484375 33.773438 47.230469 33.773438 47.550781 34.304688 Z M 47.550781 34.304688 " fill-opacity="1" fill-rule="nonzero"/><path fill="#f29b91" d="M 62.066406 57.078125 L 62.386719 57.714844 C 62.492188 57.929688 62.707031 58.035156 62.921875 58.140625 L 63.5625 58.25 C 64.199219 58.355469 64.414062 59.101562 63.988281 59.527344 L 63.453125 60.058594 C 63.242188 60.269531 63.242188 60.484375 63.242188 60.695312 L 63.347656 61.335938 C 63.453125 61.972656 62.8125 62.398438 62.28125 62.078125 L 61.640625 61.761719 C 61.425781 61.652344 61.210938 61.652344 61 61.761719 L 60.464844 61.972656 C 59.933594 62.292969 59.292969 61.761719 59.398438 61.226562 L 59.503906 60.589844 C 59.503906 60.375 59.503906 60.164062 59.292969 59.949219 L 58.757812 59.417969 C 58.332031 58.992188 58.542969 58.25 59.183594 58.140625 L 59.824219 58.035156 C 60.039062 58.035156 60.253906 57.824219 60.359375 57.609375 L 60.679688 56.972656 C 61 56.546875 61.851562 56.546875 62.066406 57.078125 Z M 62.066406 57.078125 " fill-opacity="1" fill-rule="nonzero"/><path fill="#f29b91" d="M 31.757812 70.910156 L 32.078125 71.550781 C 32.183594 71.761719 32.398438 71.867188 32.609375 71.976562 L 33.25 72.082031 C 33.890625 72.1875 34.105469 72.933594 33.679688 73.359375 L 33.144531 73.890625 C 32.929688 74.105469 32.929688 74.316406 32.929688 74.527344 L 33.039062 75.167969 C 33.144531 75.804688 32.503906 76.230469 31.96875 75.914062 L 31.328125 75.59375 C 31.117188 75.488281 30.902344 75.488281 30.691406 75.59375 L 30.050781 75.914062 C 29.515625 76.230469 28.875 75.699219 28.980469 75.167969 L 29.089844 74.527344 C 29.089844 74.316406 29.089844 74.105469 28.875 73.890625 L 28.449219 73.253906 C 28.023438 72.828125 28.234375 72.082031 28.875 71.976562 L 29.621094 71.867188 C 29.835938 71.867188 30.050781 71.65625 30.15625 71.441406 L 30.476562 70.804688 C 30.691406 70.378906 31.4375 70.378906 31.757812 70.910156 Z M 31.757812 70.910156 " fill-opacity="1" fill-rule="nonzero"/><path fill="#efa4c8" d="M 76.046875 31.328125 L 76.367188 31.964844 C 76.472656 32.179688 76.6875 32.285156 76.902344 32.390625 L 77.542969 32.496094 C 78.183594 32.605469 78.394531 33.347656 77.96875 33.773438 L 77.433594 34.304688 C 77.222656 34.519531 77.222656 34.730469 77.222656 34.945312 L 77.328125 35.582031 C 77.433594 36.222656 76.792969 36.648438 76.261719 36.328125 L 75.621094 36.007812 C 75.40625 35.902344 75.195312 35.902344 74.980469 36.007812 L 74.339844 36.328125 C 73.804688 36.648438 73.164062 36.117188 73.273438 35.582031 L 73.378906 34.945312 C 73.378906 34.730469 73.378906 34.519531 73.164062 34.304688 L 72.632812 33.773438 C 72.207031 33.347656 72.417969 32.605469 73.058594 32.496094 L 73.699219 32.390625 C 73.914062 32.390625 74.125 32.179688 74.234375 31.964844 L 74.554688 31.328125 C 74.980469 30.792969 75.726562 30.792969 76.046875 31.328125 Z M 76.046875 31.328125 " fill-opacity="1" fill-rule="nonzero"/><path fill="#efa4c8" d="M 108.171875 86.234375 L 108.492188 86.871094 C 108.597656 87.085938 108.8125 87.191406 109.023438 87.296875 L 109.664062 87.40625 C 110.304688 87.511719 110.519531 88.257812 110.09375 88.683594 L 109.558594 89.214844 C 109.34375 89.425781 109.34375 89.640625 109.34375 89.851562 L 109.453125 90.492188 C 109.558594 91.128906 108.917969 91.554688 108.382812 91.234375 L 107.746094 90.917969 C 107.53125 90.808594 107.316406 90.808594 107.105469 90.917969 L 106.464844 91.234375 C 105.929688 91.554688 105.289062 91.023438 105.394531 90.492188 L 105.503906 89.851562 C 105.503906 89.640625 105.503906 89.425781 105.289062 89.214844 L 104.757812 88.683594 C 104.328125 88.257812 104.542969 87.511719 105.183594 87.40625 L 105.824219 87.296875 C 106.035156 87.296875 106.25 87.085938 106.355469 86.871094 L 106.675781 86.234375 C 107.210938 85.703125 107.957031 85.703125 108.171875 86.234375 Z M 108.171875 86.234375 " fill-opacity="1" fill-rule="nonzero"/><path fill="#f8f0a5" d="M 39.335938 45.585938 C 39.335938 46.648438 38.480469 47.609375 37.304688 47.609375 C 36.132812 47.609375 35.277344 46.757812 35.277344 45.585938 C 35.277344 44.414062 36.132812 43.5625 37.304688 43.5625 C 38.480469 43.5625 39.335938 44.414062 39.335938 45.585938 Z M 39.335938 45.585938 " fill-opacity="1" fill-rule="nonzero"/><g clip-path="url(#1447b4365c)"><path fill="#f8f0a5" d="M 114.46875 59.417969 C 114.46875 60.484375 113.613281 61.441406 112.441406 61.441406 C 111.371094 61.441406 110.414062 60.589844 110.414062 59.417969 C 110.414062 58.25 111.265625 57.398438 112.441406 57.398438 C 113.507812 57.398438 114.46875 58.25 114.46875 59.417969 Z M 114.46875 59.417969 " fill-opacity="1" fill-rule="nonzero"/></g><path fill="#f8f0a5" d="M 90.453125 111.984375 C 90.453125 113.050781 89.601562 114.007812 88.425781 114.007812 C 87.359375 114.007812 86.398438 113.15625 86.398438 111.984375 C 86.398438 110.921875 87.253906 109.964844 88.425781 109.964844 C 89.601562 109.964844 90.453125 110.816406 90.453125 111.984375 Z M 90.453125 111.984375 " fill-opacity="1" fill-rule="nonzero"/><path fill="#f8f0a5" d="M 43.390625 90.597656 C 43.390625 91.660156 42.535156 92.617188 41.363281 92.617188 C 40.292969 92.617188 39.335938 91.769531 39.335938 90.597656 C 39.335938 89.53125 40.1875 88.574219 41.363281 88.574219 C 42.429688 88.574219 43.390625 89.425781 43.390625 90.597656 Z M 43.390625 90.597656 " fill-opacity="1" fill-rule="nonzero"/><path fill="#b6d995" d="M 43.390625 62.078125 C 43.390625 63.144531 42.535156 64.101562 41.363281 64.101562 C 40.292969 64.101562 39.335938 63.25 39.335938 62.078125 C 39.335938 61.015625 40.1875 60.058594 41.363281 60.058594 C 42.429688 60.058594 43.390625 61.015625 43.390625 62.078125 Z M 43.390625 62.078125 " fill-opacity="1" fill-rule="nonzero"/><path fill="#efa4c8" d="M 80.210938 49.308594 C 80.210938 50.375 79.355469 51.332031 78.183594 51.332031 C 77.007812 51.332031 76.152344 50.480469 76.152344 49.308594 C 76.152344 48.246094 77.007812 47.289062 78.183594 47.289062 C 79.355469 47.289062 80.210938 48.140625 80.210938 49.308594 Z M 80.210938 49.308594 " fill-opacity="1" fill-rule="nonzero"/><path fill="#e99ec5" d="M 97.925781 98.363281 C 100.058594 99.429688 102.300781 100.492188 104.4375 101.664062 C 104.757812 101.875 105.183594 101.769531 105.394531 101.449219 C 105.609375 101.132812 105.503906 100.707031 105.183594 100.492188 C 103.046875 99.429688 100.808594 98.363281 98.671875 97.195312 C 98.351562 96.980469 97.925781 97.089844 97.710938 97.40625 C 97.5 97.726562 97.605469 98.257812 97.925781 98.363281 Z M 97.925781 98.363281 " fill-opacity="1" fill-rule="nonzero"/><path fill="#81d3ee" d="M 80.316406 81.125 C 82.449219 82.191406 84.691406 83.253906 86.828125 84.425781 C 87.148438 84.636719 87.574219 84.53125 87.785156 84.210938 C 88 83.894531 87.894531 83.46875 87.574219 83.253906 C 85.4375 82.191406 83.199219 81.125 81.0625 79.957031 C 80.742188 79.742188 80.316406 79.851562 80.101562 80.167969 C 79.996094 80.488281 79.996094 80.914062 80.316406 81.125 Z M 80.316406 81.125 " fill-opacity="1" fill-rule="nonzero"/><path fill="#b6d995" d="M 70.605469 86.980469 C 70.390625 89.425781 70.070312 91.769531 69.855469 94.214844 C 69.855469 94.535156 70.175781 94.855469 70.496094 94.855469 C 70.925781 94.855469 71.136719 94.535156 71.136719 94.214844 C 71.351562 91.769531 71.671875 89.425781 71.886719 86.980469 C 71.886719 86.660156 71.566406 86.339844 71.246094 86.339844 C 70.925781 86.339844 70.605469 86.554688 70.605469 86.980469 Z M 70.605469 86.980469 " fill-opacity="1" fill-rule="nonzero"/><path fill="#f29b91" d="M 77.433594 100.8125 C 75.195312 101.875 73.058594 102.941406 70.816406 103.898438 C 70.496094 104.003906 70.390625 104.535156 70.605469 104.855469 C 70.816406 105.175781 71.136719 105.28125 71.566406 105.070312 C 73.804688 104.003906 75.941406 102.941406 78.183594 101.984375 C 78.503906 101.875 78.609375 101.34375 78.394531 101.023438 C 78.074219 100.707031 77.753906 100.601562 77.433594 100.8125 Z M 77.433594 100.8125 " fill-opacity="1" fill-rule="nonzero"/><path fill="#f29b91" d="M 104.007812 24.304688 C 101.769531 25.367188 99.632812 26.433594 97.390625 27.390625 C 97.070312 27.496094 96.964844 28.027344 97.179688 28.347656 C 97.390625 28.667969 97.710938 28.773438 98.140625 28.558594 C 100.378906 27.496094 102.515625 26.433594 104.757812 25.472656 C 105.078125 25.367188 105.183594 24.835938 104.96875 24.515625 C 104.757812 24.199219 104.328125 24.089844 104.007812 24.304688 Z M 104.007812 24.304688 " fill-opacity="1" fill-rule="nonzero"/><g clip-path="url(#a2b507c550)"><path fill="#f29b91" d="M 33.570312 99.214844 C 31.328125 100.28125 29.195312 101.34375 26.953125 102.300781 C 26.632812 102.410156 26.527344 102.941406 26.742188 103.261719 C 26.953125 103.578125 27.273438 103.6875 27.703125 103.472656 C 29.941406 102.410156 32.078125 101.34375 34.316406 100.386719 C 34.636719 100.28125 34.746094 99.75 34.53125 99.429688 C 34.210938 99.109375 33.890625 99.003906 33.570312 99.214844 Z M 33.570312 99.214844 " fill-opacity="1" fill-rule="nonzero"/></g><path fill="#81d3ee" d="M 88 98.363281 L 87.679688 97.832031 C 87.574219 97.621094 87.359375 97.515625 87.148438 97.515625 L 86.507812 97.515625 C 85.867188 97.515625 85.652344 96.769531 85.972656 96.34375 L 86.398438 95.8125 C 86.507812 95.597656 86.613281 95.386719 86.507812 95.171875 L 86.292969 94.535156 C 86.1875 94.003906 86.71875 93.46875 87.253906 93.683594 L 87.894531 93.894531 C 88.105469 94.003906 88.320312 94.003906 88.535156 93.789062 L 89.066406 93.363281 C 89.601562 93.042969 90.242188 93.46875 90.136719 94.003906 L 90.136719 94.640625 C 90.136719 94.855469 90.242188 95.066406 90.453125 95.277344 L 90.988281 95.703125 C 91.414062 96.128906 91.308594 96.875 90.667969 96.980469 L 90.027344 97.195312 C 89.816406 97.300781 89.601562 97.40625 89.496094 97.621094 L 89.28125 98.257812 C 89.066406 98.789062 88.320312 98.898438 88 98.363281 Z M 88 98.363281 " fill-opacity="1" fill-rule="nonzero"/><path fill="#f29b91" d="M 100.59375 74.527344 L 100.167969 73.996094 C 100.058594 73.785156 99.847656 73.679688 99.632812 73.679688 L 98.992188 73.679688 C 98.351562 73.679688 98.140625 72.933594 98.460938 72.507812 L 98.886719 71.867188 C 98.992188 71.65625 99.101562 71.441406 98.992188 71.230469 L 98.78125 70.59375 C 98.671875 70.058594 99.207031 69.527344 99.738281 69.742188 L 100.378906 69.953125 C 100.59375 70.058594 100.808594 70.058594 101.019531 69.847656 L 101.554688 69.421875 C 102.089844 69.101562 102.726562 69.527344 102.621094 70.058594 L 102.621094 70.699219 C 102.621094 70.910156 102.726562 71.125 102.941406 71.335938 L 103.476562 71.761719 C 103.902344 72.1875 103.796875 72.933594 103.15625 73.039062 L 102.515625 73.253906 C 102.300781 73.359375 102.089844 73.464844 101.980469 73.679688 L 101.769531 74.316406 C 101.660156 74.953125 100.914062 75.0625 100.59375 74.527344 Z M 100.59375 74.527344 " fill-opacity="1" fill-rule="nonzero"/><path fill="#efa4c8" d="M 59.933594 104.003906 L 59.613281 103.472656 C 59.503906 103.261719 59.292969 103.152344 59.078125 103.152344 L 58.4375 103.152344 C 57.796875 103.152344 57.585938 102.410156 57.902344 101.984375 L 58.332031 101.449219 C 58.4375 101.238281 58.542969 101.023438 58.4375 100.8125 L 58.222656 100.175781 C 58.117188 99.640625 58.652344 99.109375 59.183594 99.324219 L 59.824219 99.535156 C 60.039062 99.640625 60.253906 99.640625 60.464844 99.429688 L 61 99.003906 C 61.53125 98.683594 62.171875 99.109375 62.066406 99.640625 L 62.066406 100.28125 C 62.066406 100.492188 62.171875 100.707031 62.386719 100.917969 L 62.921875 101.34375 C 63.347656 101.769531 63.242188 102.515625 62.601562 102.621094 L 61.960938 102.835938 C 61.746094 102.941406 61.53125 103.046875 61.425781 103.261719 L 61.210938 103.898438 C 61 104.429688 60.253906 104.535156 59.933594 104.003906 Z M 59.933594 104.003906 " fill-opacity="1" fill-rule="nonzero"/><path fill="#f8f0a5" d="M 85.652344 66.867188 C 85.546875 65.804688 86.398438 64.738281 87.464844 64.632812 C 88.535156 64.527344 89.601562 65.378906 89.707031 66.441406 C 89.816406 67.507812 88.960938 68.570312 87.894531 68.675781 C 86.828125 68.78125 85.757812 68.039062 85.652344 66.867188 Z M 85.652344 66.867188 " fill-opacity="1" fill-rule="nonzero"/><path fill="#b6d995" d="M 69.21875 72.292969 C 69.109375 71.230469 69.964844 70.167969 71.03125 70.058594 C 72.097656 69.953125 73.164062 70.804688 73.273438 71.867188 C 73.378906 72.933594 72.527344 73.996094 71.457031 74.105469 C 70.390625 74.210938 69.324219 73.464844 69.21875 72.292969 Z M 69.21875 72.292969 " fill-opacity="1" fill-rule="nonzero"/><path fill="#b6d995" d="M 42.003906 104.535156 C 41.894531 103.472656 42.75 102.410156 43.816406 102.300781 C 44.882812 102.195312 45.949219 103.046875 46.058594 104.109375 C 46.164062 105.175781 45.3125 106.238281 44.242188 106.347656 C 43.175781 106.453125 42.109375 105.707031 42.003906 104.535156 Z M 42.003906 104.535156 " fill-opacity="1" fill-rule="nonzero"/><path fill="#efa4c8" d="M 53.957031 86.554688 C 53.847656 85.488281 54.703125 84.425781 55.769531 84.320312 C 56.835938 84.210938 57.902344 85.0625 58.011719 86.128906 C 58.117188 87.191406 57.265625 88.257812 56.195312 88.363281 C 55.128906 88.574219 54.0625 87.722656 53.957031 86.554688 Z M 53.957031 86.554688 " fill-opacity="1" fill-rule="nonzero"/><g fill="#000000" fill-opacity="1"><g transform="translate(17.934349, 69.382308)"><g><path d="M 24.007812 -11.179688 C 23.132812 -11.179688 22.257812 -10.742188 21.921875 -9.765625 C 20.742188 -6.429688 19.09375 -4.242188 17.375 -4.242188 C 16.566406 -4.242188 16.09375 -4.847656 16.09375 -5.625 C 16.09375 -5.925781 16.128906 -6.261719 16.265625 -6.601562 L 21.382812 -21.113281 C 21.683594 -21.921875 21.855469 -22.730469 21.855469 -23.636719 C 21.855469 -27.039062 18.957031 -29.226562 15.488281 -29.226562 C 14.445312 -29.226562 12.863281 -28.925781 11.550781 -27.710938 C 11.414062 -28.6875 10.269531 -29.226562 9.160156 -29.226562 C 8.183594 -29.226562 7.273438 -28.824219 6.9375 -27.882812 L -1.816406 -3.265625 C -1.953125 -2.929688 -1.988281 -2.59375 -1.988281 -2.324219 C -1.988281 -0.910156 -0.742188 0 0.605469 0 C 1.816406 0 2.964844 -0.742188 3.570312 -2.457031 L 10.40625 -21.753906 C 11.113281 -23.738281 12.898438 -24.785156 14.410156 -24.785156 C 15.488281 -24.785156 16.332031 -24.144531 16.332031 -23.03125 C 16.332031 -22.695312 16.296875 -22.324219 16.128906 -21.855469 L 11.382812 -8.453125 C 11.011719 -7.40625 10.84375 -6.363281 10.84375 -5.421875 C 10.84375 -2.054688 13.097656 0 16.398438 0 C 20.136719 0 23.839844 -2.660156 25.960938 -8.890625 C 26.027344 -9.125 26.0625 -9.328125 26.0625 -9.53125 C 26.0625 -10.574219 25.050781 -11.179688 24.007812 -11.179688 Z M 24.007812 -11.179688 "/></g></g></g><g fill="#000000" fill-opacity="1"><g transform="translate(38.709931, 69.382308)"><g><path d="M 14.242188 -7.039062 C 14.242188 -7.003906 14.242188 -7.542969 14.109375 -8.183594 C 14.34375 -8.351562 14.582031 -8.621094 14.78125 -8.921875 C 15.355469 -9.765625 16.363281 -12.695312 16.363281 -14.042969 C 16.363281 -17.476562 13.535156 -19.765625 9.898438 -19.765625 C 6.734375 -19.765625 3.738281 -18.015625 2.660156 -15.019531 L 0.203125 -8.082031 C -0.101562 -7.238281 -0.234375 -6.398438 -0.234375 -5.65625 C -0.234375 -2.121094 2.792969 0 6.230469 0 C 8.855469 0 11.246094 -0.84375 12.660156 -3.265625 C 13.265625 -3.097656 13.972656 -2.996094 14.679688 -2.996094 C 18.65625 -2.996094 21.785156 -5.824219 22.929688 -9.359375 C 23.03125 -9.730469 23.097656 -10.066406 23.097656 -10.371094 C 23.097656 -11.617188 22.191406 -12.324219 21.214844 -12.324219 C 20.304688 -12.324219 19.363281 -11.785156 18.992188 -10.539062 C 18.25 -8.453125 16.703125 -7.003906 14.714844 -7.003906 C 14.582031 -7.003906 14.378906 -7.003906 14.242188 -7.039062 Z M 11.113281 -12.222656 C 11.011719 -11.921875 10.910156 -11.652344 10.875 -11.382812 C 9.023438 -11.582031 7.375 -10.066406 7.375 -8.046875 C 7.40625 -6.902344 7.980469 -6.296875 8.621094 -5.757812 C 8.183594 -4.578125 7.207031 -4.007812 6.164062 -4.007812 C 4.847656 -4.007812 4.511719 -4.816406 4.511719 -5.625 C 4.511719 -6.261719 4.679688 -6.871094 4.816406 -7.207031 L 7.207031 -14.042969 C 7.609375 -15.152344 8.789062 -15.792969 9.832031 -15.792969 C 10.875 -15.792969 11.550781 -15.085938 11.550781 -14.3125 C 11.550781 -13.703125 11.347656 -12.929688 11.113281 -12.222656 Z M 11.113281 -12.222656 "/></g></g></g><g fill="#000000" fill-opacity="1"><g transform="translate(56.28668, 69.382308)"><g><path d="M 12.019531 -9.496094 C 10.675781 -5.792969 8.554688 -4.007812 6.601562 -4.007812 C 5.386719 -4.007812 4.648438 -4.746094 4.648438 -5.65625 C 4.648438 -5.894531 4.714844 -6.164062 4.78125 -6.398438 L 8.082031 -15.792969 L 10.269531 -15.792969 C 11.988281 -15.792969 12.898438 -17.003906 12.898438 -18.117188 C 12.898438 -18.992188 12.324219 -19.765625 11.042969 -19.765625 L 9.53125 -19.765625 L 11.785156 -26.332031 C 11.851562 -26.566406 11.886719 -26.769531 11.886719 -26.972656 C 11.886719 -28.21875 11.011719 -29.226562 9.53125 -29.226562 C 8.417969 -29.226562 7.476562 -28.453125 7.070312 -27.273438 L 4.378906 -19.765625 L 2.964844 -19.765625 C 1.144531 -19.765625 0.371094 -18.621094 0.371094 -17.542969 C 0.371094 -16.601562 0.941406 -15.792969 1.851562 -15.792969 L 2.964844 -15.792969 L 0.132812 -7.675781 L 0.132812 -7.710938 C -0.132812 -6.902344 -0.269531 -6.164062 -0.269531 -5.453125 C -0.269531 -2.019531 2.792969 0 6.261719 0 C 10.574219 0 14.175781 -3.199219 16.09375 -8.722656 C 16.164062 -8.957031 16.230469 -9.191406 16.230469 -9.394531 C 16.230469 -10.40625 15.253906 -11.042969 14.210938 -11.042969 C 13.367188 -11.042969 12.425781 -10.574219 12.019531 -9.496094 Z M 12.019531 -9.496094 "/></g></g></g><g fill="#000000" fill-opacity="1"><g transform="translate(67.297405, 69.382308)"><g/></g></g><g fill="#000000" fill-opacity="1"><g transform="translate(80.160083, 69.382308)"><g><path d="M 16.703125 -29.226562 C 13.367188 -29.226562 10 -27.34375 8.890625 -23.941406 C 8.6875 -23.269531 8.554688 -22.628906 8.554688 -21.988281 C 8.554688 -19.058594 10.574219 -16.835938 12.492188 -14.480469 C 14.074219 -12.558594 15.558594 -10.976562 15.558594 -8.957031 C 15.558594 -6.230469 13.167969 -4.578125 10.976562 -4.578125 C 8.554688 -4.613281 6.632812 -6.027344 6.667969 -8.417969 C 6.699219 -8.585938 6.699219 -8.753906 6.699219 -8.890625 C 6.699219 -10.808594 5.421875 -11.683594 4.109375 -11.683594 C 2.761719 -11.683594 1.378906 -10.707031 1.378906 -8.824219 C 1.210938 -3.46875 5.925781 0 11.011719 0 C 16.398438 0 21.28125 -4.242188 21.28125 -9.429688 C 21.28125 -12.929688 18.957031 -15.625 16.902344 -17.914062 L 16.5 -18.351562 C 15.21875 -19.730469 14.210938 -21.246094 14.210938 -22.492188 C 14.210938 -23.976562 15.925781 -24.613281 16.703125 -24.582031 C 17.746094 -24.515625 18.488281 -23.773438 19.058594 -22.628906 C 19.496094 -21.585938 20.371094 -21.113281 21.28125 -21.113281 C 22.492188 -21.113281 23.707031 -22.023438 23.707031 -23.570312 C 23.707031 -23.90625 23.671875 -24.210938 23.570312 -24.582031 C 22.796875 -27.207031 20.136719 -29.226562 16.703125 -29.226562 Z M 16.703125 -29.226562 "/></g></g></g><g fill="#000000" fill-opacity="1"><g transform="translate(103.056996, 69.382308)"><g><path d="M 14.242188 -7.039062 C 14.242188 -7.003906 14.242188 -7.542969 14.109375 -8.183594 C 14.34375 -8.351562 14.582031 -8.621094 14.78125 -8.921875 C 15.355469 -9.765625 16.363281 -12.695312 16.363281 -14.042969 C 16.363281 -17.476562 13.535156 -19.765625 9.898438 -19.765625 C 6.734375 -19.765625 3.738281 -18.015625 2.660156 -15.019531 L 0.203125 -8.082031 C -0.101562 -7.238281 -0.234375 -6.398438 -0.234375 -5.65625 C -0.234375 -2.121094 2.792969 0 6.230469 0 C 8.855469 0 11.246094 -0.84375 12.660156 -3.265625 C 13.265625 -3.097656 13.972656 -2.996094 14.679688 -2.996094 C 18.65625 -2.996094 21.785156 -5.824219 22.929688 -9.359375 C 23.03125 -9.730469 23.097656 -10.066406 23.097656 -10.371094 C 23.097656 -11.617188 22.191406 -12.324219 21.214844 -12.324219 C 20.304688 -12.324219 19.363281 -11.785156 18.992188 -10.539062 C 18.25 -8.453125 16.703125 -7.003906 14.714844 -7.003906 C 14.582031 -7.003906 14.378906 -7.003906 14.242188 -7.039062 Z M 11.113281 -12.222656 C 11.011719 -11.921875 10.910156 -11.652344 10.875 -11.382812 C 9.023438 -11.582031 7.375 -10.066406 7.375 -8.046875 C 7.40625 -6.902344 7.980469 -6.296875 8.621094 -5.757812 C 8.183594 -4.578125 7.207031 -4.007812 6.164062 -4.007812 C 4.847656 -4.007812 4.511719 -4.816406 4.511719 -5.625 C 4.511719 -6.261719 4.679688 -6.871094 4.816406 -7.207031 L 7.207031 -14.042969 C 7.609375 -15.152344 8.789062 -15.792969 9.832031 -15.792969 C 10.875 -15.792969 11.550781 -15.085938 11.550781 -14.3125 C 11.550781 -13.703125 11.347656 -12.929688 11.113281 -12.222656 Z M 11.113281 -12.222656 "/></g></g></g><path stroke-linecap="butt" transform="matrix(0.167535, 0.000000000000000001, -0.000000000000000001, 0.167535, 10.127501, 36.53245)" fill="none" stroke-linejoin="miter" d="M 197.122052 127.275012 C 191.922579 127.275012 186.676473 129.86309 184.671295 135.715412 C 177.653172 155.627297 167.790494 168.68427 157.578075 168.68427 C 152.728343 168.68427 149.93042 165.04697 149.93042 160.430398 C 149.93042 158.611748 150.116948 156.60657 150.909693 154.601392 L 181.477 67.982363 C 183.29565 63.179262 184.274923 58.329529 184.274923 52.920211 C 184.274923 32.611954 166.997749 19.554981 146.29312 19.554981 C 140.067742 19.554981 130.648068 21.373631 122.790568 28.578282 C 121.997823 22.749276 115.142912 19.554981 108.497845 19.554981 C 102.668839 19.554981 97.259522 21.956531 95.254344 27.599009 L 43.003134 174.513276 C 42.163757 176.54177 41.977229 178.546948 41.977229 180.109122 C 41.977229 188.549522 49.438357 194.005472 57.482385 194.005472 C 64.687036 194.005472 71.518631 189.575427 75.132615 179.339693 L 115.958973 64.158535 C 120.179173 52.290679 130.834596 46.0653 139.857897 46.0653 C 146.29312 46.0653 151.352697 49.889128 151.352697 56.510879 C 151.352697 58.516057 151.096221 60.731079 150.116948 63.575634 L 121.764663 143.549596 C 119.54964 149.798291 118.570367 156.023669 118.570367 161.666147 C 118.570367 181.741243 132.000397 194.005472 151.74907 194.005472 C 174.015872 194.005472 196.142779 178.103944 208.80338 140.961518 C 209.199752 139.53924 209.386281 138.303491 209.386281 137.13769 C 209.386281 130.888995 203.370746 127.275012 197.122052 127.275012 Z M 262.896556 151.989997 C 262.896556 152.199841 262.896556 148.958914 262.057179 145.181718 C 263.479456 144.155813 264.901734 142.523691 266.067535 140.751673 C 269.518306 135.715412 275.557157 118.228394 275.557157 110.184366 C 275.557157 89.666265 258.676355 76.026391 236.922505 76.026391 C 218.036526 76.026391 200.176451 86.495286 193.741229 104.35536 L 179.07545 145.764619 C 177.2568 150.777564 176.417423 155.813825 176.417423 160.243869 C 176.417423 181.344871 194.533973 194.005472 215.052074 194.005472 C 230.697127 194.005472 244.989849 188.992527 253.43025 174.513276 C 257.044234 175.492549 261.264434 176.098766 265.484634 176.098766 C 289.197031 176.098766 307.896482 159.217964 314.704761 138.116963 C 315.334293 135.90194 315.730666 133.896762 315.730666 132.078112 C 315.730666 124.663617 310.298032 120.443417 304.44571 120.443417 C 299.059709 120.443417 293.417231 123.637712 291.202209 131.098839 C 286.79548 143.549596 277.562335 152.199841 265.694478 152.199841 C 264.901734 152.199841 263.665984 152.199841 262.896556 151.989997 Z M 244.197104 121.026317 C 243.544256 122.844967 242.961355 124.477089 242.774827 126.085894 C 231.723032 124.850145 221.860353 133.896762 221.860353 145.951147 C 222.070198 152.782742 225.497653 156.420041 229.321481 159.660969 C 226.68677 166.679092 220.88108 170.106548 214.655702 170.106548 C 206.798202 170.106548 204.793024 165.233499 204.793024 160.430398 C 204.793024 156.60657 205.772297 152.96927 206.611674 150.964092 L 220.88108 110.184366 C 223.282631 103.562615 230.300754 99.738787 236.549449 99.738787 C 242.774827 99.738787 246.785183 103.958988 246.785183 108.57556 C 246.785183 112.189544 245.57275 116.806117 244.197104 121.026317 Z M 354.505214 137.324218 C 346.461185 159.404493 333.800584 170.106548 322.165888 170.106548 C 314.914605 170.106548 310.48456 165.629871 310.48456 160.243869 C 310.48456 158.821592 310.880933 157.18947 311.323937 155.813825 L 331.002661 99.738787 L 344.059635 99.738787 C 354.318685 99.738787 359.751319 92.534136 359.751319 85.842437 C 359.751319 80.642964 356.323863 76.026391 348.676208 76.026391 L 339.62959 76.026391 L 353.129568 36.832155 C 353.525941 35.409877 353.712469 34.22076 353.712469 33.008327 C 353.712469 25.593831 348.466363 19.554981 339.62959 19.554981 C 333.007839 19.554981 327.365362 24.171554 324.963811 31.189677 L 308.875755 76.026391 L 300.435354 76.026391 C 289.593403 76.026391 284.97683 82.857986 284.97683 89.293209 C 284.97683 94.935686 288.404286 99.738787 293.813603 99.738787 L 300.435354 99.738787 L 283.554553 148.166169 L 283.554553 147.979641 C 281.969063 152.782742 281.153002 157.18947 281.153002 161.409671 C 281.153002 181.927772 299.456081 194.005472 320.16071 194.005472 C 345.878285 194.005472 367.352343 174.909648 378.847143 141.940791 C 379.243515 140.518513 379.639887 139.142868 379.639887 137.907118 C 379.639887 131.868268 373.787565 128.091072 367.608819 128.091072 C 362.549242 128.091072 356.906764 130.888995 354.505214 137.324218 Z M 524.968664 19.554981 C 505.05678 19.554981 484.981683 30.793305 478.313301 51.101561 C 477.124183 55.135234 476.284806 58.912429 476.284806 62.736257 C 476.284806 80.246591 488.362507 93.513409 499.857307 107.596287 C 509.27698 119.021139 518.113753 128.487445 518.113753 140.518513 C 518.113753 156.816414 503.867663 166.679092 490.764057 166.679092 C 476.284806 166.469248 464.859955 158.028847 465.069799 143.75944 C 465.256327 142.780167 465.256327 141.730946 465.256327 140.961518 C 465.256327 129.466718 457.608671 124.267244 449.797803 124.267244 C 441.753775 124.267244 433.499903 130.072934 433.499903 141.35789 C 432.473998 173.300843 460.639754 194.005472 490.973902 194.005472 C 523.150015 194.005472 552.295044 168.68427 552.295044 137.72059 C 552.295044 116.806117 538.42201 100.71806 526.157782 87.078186 L 523.756231 84.466792 C 516.085259 76.236235 510.116357 67.142986 510.116357 59.751806 C 510.116357 50.915033 520.30546 47.091205 524.968664 47.277733 C 531.194043 47.674106 535.624087 52.080834 539.004911 58.912429 C 541.662938 65.137808 546.862411 67.982363 552.295044 67.982363 C 559.523012 67.982363 566.774295 62.549729 566.774295 53.316584 C 566.774295 51.311406 566.541135 49.492756 565.934918 47.277733 C 561.341662 31.586049 545.440133 19.554981 524.968664 19.554981 Z M 646.981418 151.989997 C 646.981418 152.199841 646.981418 148.958914 646.142041 145.181718 C 647.564318 144.155813 648.986596 142.523691 650.152397 140.751673 C 653.603168 135.715412 659.642019 118.228394 659.642019 110.184366 C 659.642019 89.666265 642.761217 76.026391 621.007367 76.026391 C 602.121388 76.026391 584.261313 86.495286 577.826091 104.35536 L 563.160312 145.764619 C 561.341662 150.777564 560.502285 155.813825 560.502285 160.243869 C 560.502285 181.344871 578.618835 194.005472 599.136937 194.005472 C 614.781989 194.005472 629.051395 188.992527 637.491796 174.513276 C 641.129096 175.492549 645.349296 176.098766 649.569496 176.098766 C 673.281893 176.098766 691.958028 159.217964 698.789623 138.116963 C 699.419155 135.90194 699.815528 133.896762 699.815528 132.078112 C 699.815528 124.663617 694.382894 120.443417 688.530572 120.443417 C 683.144571 120.443417 677.502093 123.637712 675.287071 131.098839 C 670.857026 143.549596 661.647197 152.199841 649.756024 152.199841 C 648.986596 152.199841 647.750846 152.199841 646.981418 151.989997 Z M 628.281966 121.026317 C 627.629118 122.844967 627.046217 124.477089 626.859689 126.085894 C 615.807894 124.850145 605.945216 133.896762 605.945216 145.951147 C 606.15506 152.782742 609.582515 156.420041 613.406343 159.660969 C 610.748316 166.679092 604.965943 170.106548 598.740564 170.106548 C 590.883064 170.106548 588.877886 165.233499 588.877886 160.430398 C 588.877886 156.60657 589.857159 152.96927 590.696536 150.964092 L 604.965943 110.184366 C 607.367493 103.562615 614.385616 99.738787 620.610995 99.738787 C 626.859689 99.738787 630.870045 103.958988 630.870045 108.57556 C 630.870045 112.189544 629.657612 116.806117 628.281966 121.026317 Z M 628.281966 121.026317 " stroke="#fdfafc" stroke-width="9.798653" stroke-opacity="1" stroke-miterlimit="4"/><g fill="#000000" fill-opacity="1"><g transform="translate(32.515129, 102.889308)"><g><path d="M 15.996094 -29.226562 C 15.050781 -29.226562 13.839844 -29.027344 12.996094 -28.417969 C 12.929688 -29.53125 11.820312 -30.273438 10.605469 -30.273438 C 9.394531 -30.273438 8.148438 -29.597656 7.542969 -27.914062 L -0.976562 -3.503906 C -1.109375 -3.097656 -1.210938 -2.726562 -1.210938 -2.390625 C -1.210938 -0.910156 0.0351562 0 1.378906 0 C 2.492188 0 3.671875 -0.671875 4.210938 -2.257812 L 6.464844 -8.890625 C 7.644531 -7.777344 9.359375 -7.070312 11.246094 -7.070312 C 14.546875 -7.070312 18.117188 -9.089844 19.632812 -13.367188 L 22.292969 -20.84375 C 22.59375 -21.683594 22.761719 -22.5625 22.761719 -23.300781 C 22.761719 -27.175781 19.699219 -29.226562 15.996094 -29.226562 Z M 16.703125 -20.675781 L 14.648438 -14.648438 C 14.074219 -12.964844 12.796875 -12.089844 11.484375 -12.089844 C 10 -12.089844 8.789062 -13.199219 8.789062 -14.714844 C 8.789062 -14.984375 8.824219 -15.1875 8.921875 -15.457031 L 11.246094 -22.292969 C 11.886719 -24.144531 13.265625 -24.785156 14.613281 -24.785156 C 15.960938 -24.785156 16.972656 -23.90625 16.972656 -22.292969 C 16.972656 -21.855469 16.902344 -21.316406 16.703125 -20.675781 Z M 16.703125 -20.675781 "/></g></g></g><g fill="#000000" fill-opacity="1"><g transform="translate(52.011179, 102.889308)"><g><path d="M 4.613281 -5.488281 L 11.683594 -25.960938 C 11.820312 -26.367188 11.886719 -26.769531 11.886719 -27.105469 C 11.886719 -28.386719 10.675781 -29.226562 9.664062 -29.226562 C 8.382812 -29.226562 7.542969 -28.519531 7.003906 -27.003906 L 0 -7.003906 C -0.269531 -6.230469 -0.402344 -5.523438 -0.402344 -4.816406 C -0.402344 -1.71875 2.15625 0 5.117188 0 C 8.316406 0 12.324219 -1.988281 14.679688 -8.992188 C 14.75 -9.226562 14.78125 -9.460938 14.78125 -9.664062 C 14.78125 -10.742188 13.839844 -11.515625 12.796875 -11.515625 C 11.953125 -11.515625 11.042969 -11.011719 10.574219 -9.765625 C 9.058594 -5.722656 7.105469 -4.007812 5.523438 -4.007812 C 4.847656 -4.007812 4.476562 -4.410156 4.476562 -4.917969 C 4.476562 -5.050781 4.546875 -5.285156 4.613281 -5.488281 Z M 4.613281 -5.488281 "/></g></g></g><g fill="#000000" fill-opacity="1"><g transform="translate(61.40565, 102.889308)"><g><path d="M 21.113281 -11.382812 C 20.171875 -11.382812 19.125 -10.808594 18.722656 -9.53125 C 17.410156 -5.386719 15.289062 -4.007812 13.773438 -4.007812 C 13.199219 -4.007812 12.863281 -4.308594 12.863281 -4.847656 C 12.863281 -5.117188 12.929688 -5.453125 13.03125 -5.824219 L 16.804688 -16.734375 C 16.9375 -17.140625 17.003906 -17.511719 17.003906 -17.847656 C 17.003906 -19.328125 15.792969 -20.101562 14.546875 -20.101562 C 13.605469 -20.101562 12.628906 -19.664062 12.089844 -18.824219 C 11.382812 -19.261719 10.066406 -19.765625 8.351562 -19.765625 C 6.128906 -19.765625 3.703125 -18.554688 2.792969 -15.960938 L -0.371094 -6.902344 C -0.574219 -6.296875 -0.707031 -5.691406 -0.707031 -5.085938 C -0.707031 -2.289062 1.550781 0 4.511719 0 C 6.09375 0 7.710938 -0.707031 8.957031 -1.816406 C 10.035156 -0.269531 12.425781 0 13.433594 0 C 16.230469 0 19.96875 -1.414062 22.125 -6.871094 C 22.59375 -8.183594 22.964844 -9.023438 22.964844 -9.628906 C 22.964844 -10.773438 22.089844 -11.382812 21.113281 -11.382812 Z M 10 -11.71875 L 8.382812 -6.699219 C 7.675781 -4.511719 6.398438 -4.007812 5.691406 -4.007812 C 4.949219 -4.007812 4.578125 -4.476562 4.578125 -5.253906 C 4.578125 -5.691406 4.679688 -6.09375 4.78125 -6.398438 L 6.9375 -13.167969 C 7.578125 -15.21875 8.519531 -15.488281 9.058594 -15.488281 C 9.699219 -15.488281 10.40625 -14.851562 10.40625 -13.703125 C 10.40625 -13.199219 10.269531 -12.558594 10 -11.71875 Z M 10 -11.71875 "/></g></g></g><g fill="#000000" fill-opacity="1"><g transform="translate(79.083417, 102.889308)"><g><path d="M 9.058594 -22.863281 C 10.574219 -22.863281 11.820312 -24.109375 11.820312 -25.660156 C 11.820312 -27.175781 10.574219 -28.386719 9.058594 -28.386719 C 7.542969 -28.386719 6.296875 -27.175781 6.296875 -25.660156 C 6.296875 -24.109375 7.542969 -22.863281 9.058594 -22.863281 Z M 4.511719 -5.691406 L 8.214844 -16.265625 C 8.351562 -16.703125 8.519531 -17.171875 8.519531 -17.511719 C 8.519531 -18.992188 7.40625 -19.765625 6.261719 -19.765625 C 5.21875 -19.765625 4.109375 -19.023438 3.570312 -17.441406 C 2.492188 -14.277344 1.078125 -10.269531 0 -7.136719 C -0.203125 -6.464844 -0.472656 -5.554688 -0.472656 -4.984375 C -0.472656 -1.816406 2.15625 0 5.253906 0 C 8.554688 0 12.191406 -2.019531 14.546875 -8.992188 C 14.613281 -9.191406 14.648438 -9.394531 14.648438 -9.597656 C 14.648438 -10.640625 13.636719 -11.28125 12.628906 -11.28125 C 11.71875 -11.28125 10.808594 -10.808594 10.40625 -9.765625 C 8.824219 -5.386719 7.039062 -4.007812 5.691406 -4.007812 C 4.917969 -4.007812 4.410156 -4.511719 4.410156 -5.152344 C 4.410156 -5.320312 4.445312 -5.488281 4.511719 -5.691406 Z M 4.511719 -5.691406 "/></g></g></g><g fill="#000000" fill-opacity="1"><g transform="translate(88.376869, 102.889308)"><g><path d="M 18.789062 -9.699219 C 17.308594 -5.65625 15.457031 -4.007812 13.875 -4.007812 C 13.265625 -4.007812 12.929688 -4.308594 12.929688 -4.882812 C 12.929688 -5.117188 12.996094 -5.386719 13.097656 -5.722656 L 15.726562 -13.199219 C 15.960938 -13.875 16.09375 -14.480469 16.09375 -15.050781 C 16.09375 -17.746094 13.804688 -19.765625 11.113281 -19.765625 C 9.796875 -19.765625 8.753906 -19.464844 7.878906 -18.824219 C 7.675781 -19.429688 6.835938 -19.765625 5.925781 -19.765625 C 4.984375 -19.765625 4.074219 -19.328125 3.738281 -18.386719 L -1.886719 -2.660156 C -1.988281 -2.355469 -2.019531 -2.085938 -2.019531 -1.816406 C -2.019531 -0.574219 -1.042969 0.0664062 0.0351562 0.0664062 C 1.210938 0.0664062 2.558594 -0.671875 3.0625 -2.1875 C 4.242188 -5.453125 5.859375 -10.066406 7.003906 -13.300781 C 7.914062 -14.984375 9.089844 -15.792969 10.035156 -15.792969 C 10.640625 -15.792969 11.078125 -15.386719 11.078125 -14.75 C 11.078125 -14.511719 11.011719 -14.210938 10.910156 -13.90625 L 8.453125 -6.96875 C 8.183594 -6.195312 8.015625 -5.453125 8.015625 -4.746094 C 8.015625 -1.648438 10.574219 0 13.433594 0 C 16.871094 0 20.539062 -2.324219 22.863281 -8.890625 C 22.964844 -9.160156 23.03125 -9.429688 23.03125 -9.664062 C 23.03125 -10.742188 22.054688 -11.3125 21.046875 -11.3125 C 20.136719 -11.3125 19.125 -10.808594 18.789062 -9.699219 Z M 18.789062 -9.699219 "/></g></g></g><path stroke-linecap="butt" transform="matrix(0.167535, 0.000000000000000001, -0.000000000000000001, 0.167535, 10.127501, 36.53245)" fill="none" stroke-linejoin="miter" d="M 236.36292 219.559834 C 230.720443 219.559834 223.469159 220.725635 218.456214 224.362935 C 218.059842 217.741184 211.438091 213.334456 204.163491 213.334456 C 196.95884 213.334456 189.497712 217.344812 185.930361 227.347386 L 135.03148 373.095852 C 134.262052 375.497402 133.655835 377.712425 133.655835 379.717603 C 133.655835 388.554376 141.070331 394.010325 149.114359 394.010325 C 155.73611 394.010325 162.754233 389.976653 165.99516 380.556979 L 179.448506 340.966371 C 186.513261 347.588122 196.772312 351.808322 208.010635 351.808322 C 227.689359 351.808322 249.023521 339.730622 258.046823 314.222891 L 273.948351 269.619338 C 275.720369 264.55976 276.746274 259.360287 276.746274 254.930243 C 276.746274 231.824063 258.443195 219.559834 236.36292 219.559834 Z M 240.583121 270.598611 L 228.318892 306.551919 C 224.891437 316.624442 217.220465 321.870547 209.432913 321.870547 C 200.59614 321.870547 193.32154 315.202164 193.32154 306.155547 C 193.32154 304.546741 193.531384 303.357624 194.114285 301.748819 L 208.010635 260.922461 C 211.834463 249.870665 220.06502 246.046837 228.132364 246.046837 C 236.176392 246.046837 242.145294 251.316259 242.145294 260.922461 C 242.145294 263.580487 241.772238 266.751467 240.583121 270.598611 Z M 284.766986 361.227996 L 326.968989 239.028714 C 327.808366 236.627164 328.204739 234.225613 328.204739 232.220435 C 328.204739 224.572779 320.930139 219.559834 314.961237 219.559834 C 307.290265 219.559834 302.300636 223.780035 299.059709 232.803336 L 257.254078 352.181378 C 255.621956 356.797951 254.829211 361.018151 254.829211 365.238352 C 254.829211 383.751275 270.101207 394.010325 287.821385 394.010325 C 306.893893 394.010325 330.792817 382.119153 344.875696 340.313522 C 345.272068 338.937877 345.481912 337.515599 345.481912 336.303166 C 345.481912 329.867943 339.839434 325.251371 333.59074 325.251371 C 328.601111 325.251371 323.145161 328.30577 320.347238 335.696949 C 311.323937 359.85235 299.642609 370.111401 290.222936 370.111401 C 286.189263 370.111401 283.997557 367.639902 283.997557 364.655451 C 283.997557 363.862706 284.370614 362.440429 284.766986 361.227996 Z M 439.328909 326.090748 C 433.686431 326.090748 427.507684 329.471571 425.059502 337.119227 C 417.248634 361.857528 404.588033 370.111401 395.5181 370.111401 C 392.137276 370.111401 390.108782 368.292751 390.108782 365.051824 C 390.108782 363.419702 390.505154 361.414524 391.088055 359.199502 L 413.611334 294.101163 C 414.404079 291.699612 414.800451 289.48459 414.800451 287.479412 C 414.800451 278.642639 407.572484 274.026066 400.134672 274.026066 C 394.538827 274.026066 388.686505 276.614145 385.445577 281.62709 C 381.225377 279.039011 373.437825 276.031244 363.178774 276.031244 C 349.865325 276.031244 335.456022 283.259212 330.000072 298.717735 L 311.114093 352.787595 C 309.878344 356.401579 309.108915 360.038878 309.108915 363.676178 C 309.108915 380.300503 322.538945 394.010325 340.259123 394.010325 C 349.678797 394.010325 359.354947 389.790125 366.816074 383.145058 C 373.227981 392.378204 387.474071 394.010325 393.489606 394.010325 C 410.183879 394.010325 432.52063 385.569925 445.367759 352.974123 C 448.165682 345.186571 450.380704 340.126994 450.380704 336.536326 C 450.380704 329.658099 445.181231 326.090748 439.328909 326.090748 Z M 373.041453 324.085569 L 363.365303 354.000028 C 359.145102 367.057002 351.497446 370.111401 347.277246 370.111401 C 342.870518 370.111401 340.655495 367.266846 340.655495 362.650273 C 340.655495 360.038878 341.238396 357.637328 341.867929 355.818678 L 354.738374 315.388693 C 358.562202 303.171096 364.158047 301.56229 367.398975 301.56229 C 371.222803 301.56229 375.443003 305.386118 375.443003 312.194397 C 375.443003 315.202164 374.603626 319.025992 373.041453 324.085569 Z M 472.903983 257.541637 C 481.9506 257.541637 489.388412 250.08051 489.388412 240.847364 C 489.388412 231.824063 481.9506 224.572779 472.903983 224.572779 C 463.880682 224.572779 456.419554 231.824063 456.419554 240.847364 C 456.419554 250.08051 463.880682 257.541637 472.903983 257.541637 Z M 445.787447 360.038878 L 467.867722 296.945718 C 468.683783 294.287691 469.663056 291.489768 469.663056 289.48459 C 469.663056 280.647817 463.041305 276.031244 456.233026 276.031244 C 449.984331 276.031244 443.362581 280.461289 440.121653 289.880962 C 433.709747 308.766942 425.269346 332.712498 418.834124 351.41195 C 417.598374 355.422306 416.036201 360.831623 416.036201 364.259079 C 416.036201 383.145058 431.681253 394.010325 450.194176 394.010325 C 469.8729 394.010325 491.603434 381.932625 505.639681 340.313522 C 506.082685 339.147721 506.269213 337.911972 506.269213 336.74617 C 506.269213 330.497476 500.253679 326.673648 494.214829 326.673648 C 488.758879 326.673648 483.372878 329.471571 480.948011 335.696949 C 471.481706 361.857528 460.849599 370.111401 452.782254 370.111401 C 448.188998 370.111401 445.181231 367.057002 445.181231 363.233174 C 445.181231 362.253901 445.391075 361.227996 445.787447 360.038878 Z M 586.476336 336.093322 C 577.59293 360.248723 566.564451 370.111401 557.144777 370.111401 C 553.507478 370.111401 551.5023 368.292751 551.5023 364.841979 C 551.5023 363.419702 551.898672 361.857528 552.481573 359.85235 L 568.173257 315.202164 C 569.595534 311.168492 570.388279 307.577825 570.388279 304.150369 C 570.388279 288.062313 556.701773 276.031244 540.660349 276.031244 C 532.802848 276.031244 526.57747 277.849894 521.308049 281.62709 C 520.142247 278.036422 515.08267 276.031244 509.696669 276.031244 C 504.054191 276.031244 498.644873 278.642639 496.639695 284.285117 L 463.064621 378.108797 C 462.435088 379.927447 462.24856 381.536252 462.24856 383.145058 C 462.24856 390.559554 468.077566 394.383382 474.512789 394.383382 C 481.530912 394.383382 489.57494 389.976653 492.606023 380.953352 C 499.624146 361.414524 509.300296 333.8783 516.108575 314.595948 C 521.564525 304.546741 528.582648 299.743641 534.225126 299.743641 C 537.815794 299.743641 540.450504 302.145191 540.450504 305.969019 C 540.450504 307.391296 540.0075 309.163314 539.424599 310.981964 L 524.75882 352.391223 C 523.126699 357.007795 522.147426 361.414524 522.147426 365.634724 C 522.147426 384.147647 537.419421 394.010325 554.486751 394.010325 C 575.004852 394.010325 596.94523 380.113975 610.771632 340.966371 C 611.354533 339.334249 611.797538 337.725443 611.797538 336.303166 C 611.797538 329.867943 605.968532 326.48712 599.929681 326.48712 C 594.473732 326.48712 588.50483 329.471571 586.476336 336.093322 Z M 586.476336 336.093322 " stroke="#fdfafc" stroke-width="9.798653" stroke-opacity="1" stroke-miterlimit="4"/></svg>